<svg width="255" height="684" viewBox="0 0 255 684" fill="none" xmlns="http://www.w3.org/2000/svg">
<path d="M120.52 0.831543L254.349 127.934L154.915 182.05L55.4817 236.166L0.157959 153.271L120.52 0.831543Z" fill="url(#paint0_linear)"/>
<path d="M120.52 0.831543L254.349 127.934L154.915 182.05L55.4817 236.166L0.157959 153.271L120.52 0.831543Z" fill="url(#paint1_linear)"/>
<path d="M122.228 2.47993L253.93 127.396L215.421 684L127.236 549.188L122.228 2.47993Z" fill="url(#paint2_linear)"/>
<path d="M122.228 2.47993L253.93 127.396L215.421 684L127.236 549.188L122.228 2.47993Z" fill="url(#paint3_linear)"/>
<defs>
<linearGradient id="paint0_linear" x1="127" y1="78.5" x2="278.5" y2="606.5" gradientUnits="userSpaceOnUse">
<stop stop-color="#7B3051" stop-opacity="0.55"/>
<stop offset="0.427083" stop-color="#DA5B5E"/>
<stop offset="0.65625" stop-color="#D6951E"/>
<stop offset="0.786458" stop-color="#EAC273"/>
<stop offset="1" stop-color="#85C0E8" stop-opacity="0.32"/>
</linearGradient>
<linearGradient id="paint1_linear" x1="127" y1="78.5" x2="278.5" y2="606.5" gradientUnits="userSpaceOnUse">
<stop stop-color="#7B3051" stop-opacity="0.55"/>
<stop offset="0.427083" stop-color="#DA5B5E"/>
<stop offset="0.65625" stop-color="#D6951E"/>
<stop offset="0.786458" stop-color="#EAC273"/>
<stop offset="1" stop-color="#85C0E8" stop-opacity="0.32"/>
</linearGradient>
<linearGradient id="paint2_linear" x1="127" y1="78.5" x2="278.5" y2="606.5" gradientUnits="userSpaceOnUse">
<stop stop-color="#7B3051" stop-opacity="0.55"/>
<stop offset="0.427083" stop-color="#DA5B5E"/>
<stop offset="0.65625" stop-color="#D6951E"/>
<stop offset="0.786458" stop-color="#EAC273"/>
<stop offset="1" stop-color="#85C0E8" stop-opacity="0.32"/>
</linearGradient>
<linearGradient id="paint3_linear" x1="127" y1="78.5" x2="278.5" y2="606.5" gradientUnits="userSpaceOnUse">
<stop stop-color="#7B3051" stop-opacity="0.55"/>
<stop offset="0.427083" stop-color="#DA5B5E"/>
<stop offset="0.65625" stop-color="#D6951E"/>
<stop offset="0.786458" stop-color="#EAC273"/>
<stop offset="1" stop-color="#85C0E8" stop-opacity="0.32"/>
</linearGradient>
</defs>
</svg>
